<svg width="139" height="118" viewBox="0 0 139 118" fill="none" xmlns="http://www.w3.org/2000/svg">
<path fill-rule="evenodd" clip-rule="evenodd" d="M51.6407 43.3615C63.7981 49.3036 74.849 62.1687 77.788 74.6402C81.2083 89.1543 72.3465 97.6391 57.9947 93.5914C43.6429 89.5438 29.2357 74.4965 25.8154 59.9824C22.8765 47.5109 29.0058 39.4911 39.8944 40.0487L27.9129 27.2883C15.7832 29.4947 9.54927 40.5226 13.3035 56.4537C18.3706 77.9561 39.7145 100.248 60.9765 106.245C82.2385 112.241 95.367 99.6713 90.2999 78.1689C86.5457 62.2378 73.8566 45.8731 58.8859 36.0236L51.6407 43.3615Z" fill="#00B2FF"/>
<path d="M28.3305 25.6701L45.3003 40.0355L57.233 33.8214C65.1127 29.093 59.2594 20.952 55.3478 17.4725C46.4001 10.6716 41.0472 13.2413 39.4892 15.3762C34.0097 8.66235 26.9426 7.45638 24.094 7.69262C15.2019 9.7146 23.2403 21.1651 28.3305 25.6701Z" fill="#F5D947"/>
<path fill-rule="evenodd" clip-rule="evenodd" d="M99.4792 100.876C120.96 95.7188 136.452 73.7329 134.082 51.769C131.711 29.8052 112.376 16.1807 90.8948 21.3378C69.4138 26.4949 53.9217 48.4808 56.2922 70.4447C58.6627 92.4085 77.9982 106.033 99.4792 100.876ZM98.0843 87.951C112.584 84.4699 123.041 69.6294 121.441 54.8038C119.841 39.9782 106.789 30.7817 92.2898 34.2628C77.7901 37.7438 67.3329 52.5843 68.933 67.4099C70.5331 82.2355 83.5846 91.432 98.0843 87.951Z" fill="#00B2FF"/>
</svg>
